<svg xmlns="http://www.w3.org/2000/svg" xmlns:xlink="http://www.w3.org/1999/xlink"><symbol id="sprite-advantage-star" fill="none" viewBox="0 0 18 22"><path fill="#fff" d="m9 0 3.01 5.48 5.99.02-2.97 5.5 2.97 5.5-5.99.03-3.01 5.47-3.01-5.47-5.99-.03 2.97-5.5-2.97-5.5 5.99-.02z"/></symbol><use xlink:href="#sprite-advantage-star" width="18" height="22"/><view id="sprite-advantage-star-view" viewBox="0 0 18 22"/><symbol id="sprite-angle" fill="none" viewBox="0 0 10 10"><path fill="#fff" d="M10 10a10 10 0 0 1-10-10v10z"/></symbol><use xlink:href="#sprite-angle" width="10" height="10" y="22"/><view id="sprite-angle-view" viewBox="0 22 10 10"/><symbol id="sprite-arrow-diagonal-thin" fill="none" viewBox="0 0 8 8"><path stroke="#fff" stroke-width=".8" d="m.8 7.2 6.4-6.4m0 0h-6.36m6.36-.4v6.76"/></symbol><use xlink:href="#sprite-arrow-diagonal-thin" width="8" height="8" y="32"/><view id="sprite-arrow-diagonal-thin-view" viewBox="0 32 8 8"/><symbol id="sprite-arrow-diagonal" fill="none" viewBox="0 0 10 10"><g clip-path="url(#a)"><path stroke="#fff" stroke-width="1.6" d="m1.8 8.2 6.4-6.4m1 0h-7.36m6.36 0v6.36"/></g><defs><clipPath id="a"><path fill="#fff" d="M1 1h8v8h-8z"/></clipPath></defs></symbol><use xlink:href="#sprite-arrow-diagonal" width="10" height="10" y="40"/><view id="sprite-arrow-diagonal-view" viewBox="0 40 10 10"/><symbol id="sprite-arrow-up" fill="none" viewBox="0 0 12 12"><path stroke="#fff" d="m11.46 8.18-5.46-4.9-5.45 4.9"/></symbol><use xlink:href="#sprite-arrow-up" width="12" height="12" y="50"/><view id="sprite-arrow-up-view" viewBox="0 50 12 12"/><symbol id="sprite-burger-menu" fill="none" viewBox="0 0 20 20"><path stroke="#fff" stroke-linecap="round" d="M1 6h18m-18 4h18m-18 4h18"/></symbol><use xlink:href="#sprite-burger-menu" width="20" height="20" y="62"/><view id="sprite-burger-menu-view" viewBox="0 62 20 20"/><symbol id="sprite-check" fill="none" viewBox="0 0 10 10"><path stroke="#316DC2" stroke-linecap="round" stroke-linejoin="round" d="m1 4.5 2.95 3.5 5.05-6"/></symbol><use xlink:href="#sprite-check" width="10" height="10" y="82"/><view id="sprite-check-view" viewBox="0 82 10 10"/><symbol id="sprite-cross-menu" fill="none" viewBox="0 0 20 20"><path stroke="#316DC2" stroke-linecap="round" stroke-linejoin="round" d="m2 18 8-8m0 0 8-8m-8 8 8 8m-8-8-8-8"/></symbol><use xlink:href="#sprite-cross-menu" width="20" height="20" y="92"/><view id="sprite-cross-menu-view" viewBox="0 92 20 20"/><symbol id="sprite-minus" fill="none" viewBox="0 0 18 2"><g clip-path="url(#clip0_2369_2308)"><path stroke="#316DC2" d="M0 1h18"/></g></symbol><use xlink:href="#sprite-minus" width="18" height="2" y="112"/><view id="sprite-minus-view" viewBox="0 112 18 2"/><symbol id="sprite-plus" fill="none" viewBox="0 0 18 18"><g clip-path="url(#clip0_2369_2288)"><path stroke="#fff" d="M9 0v9m0 0v9m0-9h-9m9 0h9"/></g></symbol><use xlink:href="#sprite-plus" width="18" height="18" y="114"/><view id="sprite-plus-view" viewBox="0 114 18 18"/><symbol id="sprite-social-ok" fill="none" viewBox="0 0 22 22"><path fill="#316DC2" d="M11 3.33c1.32 0 2.4 1.05 2.4 2.35s-1.08 2.35-2.4 2.35-2.4-1.06-2.4-2.35c0-1.3 1.08-2.35 2.4-2.35m0 8.02c3.2 0 5.8-2.54 5.8-5.67s-2.6-5.68-5.8-5.68-5.79 2.55-5.79 5.68 2.6 5.68 5.79 5.68m2.34 4.63a11 11 0 0 0 3.37-1.37 1.64 1.64 0 0 0 .53-2.3 1.7 1.7 0 0 0-2.34-.52 7.5 7.5 0 0 1-7.8 0 1.7 1.7 0 0 0-2.34.53 1.64 1.64 0 0 0 .53 2.29 11 11 0 0 0 3.37 1.37l-3.24 3.17a1.64 1.64 0 0 0 0 2.35 1.73 1.73 0 0 0 2.4 0l3.18-3.12 3.18 3.12a1.7 1.7 0 0 0 2.4 0 1.64 1.64 0 0 0 0-2.35z"/></symbol><use xlink:href="#sprite-social-ok" width="22" height="22" y="132"/><view id="sprite-social-ok-view" viewBox="0 132 22 22"/><symbol id="sprite-social-reddit" fill="none" viewBox="0 0 22 22"><path fill="#316DC2" d="M12.95.5a2.1 2.1 0 0 0-1.63.83c-.39.5-.6 1.1-.76 1.73a15 15 0 0 0-.34 3.17c-1.8.12-3.43.68-4.79 1.55a2.8 2.8 0 0 0-1.85-.75 2.4 2.4 0 0 0-1.92 1 3.8 3.8 0 0 0 .27 4.64 7 7 0 0 0-.12 1.18c0 4.23 4.11 7.65 9.19 7.65s9.2-3.43 9.2-7.65q-.01-.6-.13-1.18a3.8 3.8 0 0 0 .27-4.63 2.4 2.4 0 0 0-1.92-1.01c-.64 0-1.3.26-1.85.75a10 10 0 0 0-4.77-1.56c.03-.93.1-1.9.27-2.64q.17-.7.39-.98c.22-.28.25-.26.49-.26.52 0 .58.18.9.6.15.22.34.5.63.75.29.27.72.5 1.19.5v-1.85c-.13 0-.16 0-.24-.09q-.13-.13-.4-.51c-.35-.5-1.05-1.24-2.08-1.24m5.06.17c-1.22 0-2.2 1.16-2.2 2.6 0 1.42.98 2.58 2.2 2.58s2.18-1.16 2.18-2.59-.98-2.59-2.19-2.59m0 .92c.78 0 1.41.75 1.41 1.67s-.63 1.67-1.4 1.67-1.42-.75-1.42-1.67.64-1.67 1.41-1.67m-7 6.07c4.3 0 7.95 2.84 7.95 6.19s-3.64 6.18-7.95 6.18-7.95-2.83-7.95-6.18 3.64-6.19 7.95-6.19m-7.4.84q.34 0 .66.17-1.18 1.05-1.82 2.42c-.3-.72-.21-1.6.15-2.07a1.2 1.2 0 0 1 1.02-.52m14.78 0q.62 0 1.02.51c.36.48.44 1.37.15 2.08a8 8 0 0 0-1.82-2.42 2 2 0 0 1 .65-.17m-10.5 2.3c-.78 0-1.41.75-1.41 1.67s.63 1.67 1.4 1.67 1.42-.75 1.42-1.67-.63-1.67-1.41-1.67m6.22 0c-.78 0-1.4.75-1.4 1.67s.62 1.67 1.4 1.67 1.41-.75 1.41-1.67-.63-1.67-1.4-1.67m-6.99 5.67c.5 1.2 2.03 2.38 3.87 2.38s3.4-1.17 3.89-2.38c-.9.68-2.32 1.15-3.89 1.15s-2.97-.47-3.87-1.15"/></symbol><use xlink:href="#sprite-social-reddit" width="22" height="22" y="154"/><view id="sprite-social-reddit-view" viewBox="0 154 22 22"/><symbol id="sprite-social-vk" fill="none" viewBox="0 0 22 22"><path fill="#316DC2" d="M21.8 15.7c-.06-.1-.42-.85-2.18-2.41-1.84-1.64-1.6-1.37.62-4.2 1.36-1.72 1.9-2.77 1.73-3.22-.16-.43-1.16-.32-1.16-.32l-3.3.02s-.25-.03-.43.07-.3.34-.3.34-.52 1.33-1.22 2.47c-1.47 2.39-2.06 2.51-2.3 2.37-.56-.35-.42-1.4-.42-2.14 0-2.31.37-3.28-.72-3.53a6 6 0 0 0-1.54-.15c-1.18 0-2.18 0-2.74.27-.38.18-.67.57-.5.6.22.02.72.12.98.46.34.44.33 1.43.33 1.43s.2 2.73-.46 3.07c-.44.23-1.06-.24-2.37-2.41-.67-1.11-1.18-2.34-1.18-2.34s-.1-.23-.27-.35a1.4 1.4 0 0 0-.51-.2l-3.14.02s-.47.01-.65.2c-.15.18-.01.54-.01.54s2.46 5.5 5.25 8.28c2.55 2.55 5.46 2.38 5.46 2.38h1.3s.4-.04.6-.25.19-.55.19-.55-.03-1.69.8-1.94c.8-.24 1.84 1.63 2.93 2.35.83.55 1.47.43 1.47.43l2.94-.04s1.53-.1.8-1.25"/></symbol><use xlink:href="#sprite-social-vk" width="22" height="22" y="176"/><view id="sprite-social-vk-view" viewBox="0 176 22 22"/></svg>